<svg width="166" height="36" viewBox="0 0 166 36" fill="none" xmlns="http://www.w3.org/2000/svg">
<g clip-path="url(#clip0)">
<path fill-rule="evenodd" clip-rule="evenodd" d="M135.678 25.404L140.167 17.9051H139.753H138.648V15.266H141.746H141.906H144.073H144.267H144.426L144.508 15.4011L150.589 25.4018L150.846 25.825H150.348H147.582H147.419L147.337 25.6833L146.155 23.6264H139.803L138.621 25.6833L138.539 25.825H138.377H135.92H135.426L135.678 25.404H135.678ZM106.608 25.825H104.628H104.436L104.366 25.6461L99.6205 13.4467L99.4729 13.0673H99.8824H102.84H103.034L103.103 13.2483L105.969 20.7545L108.969 13.244L109.039 13.0673H109.231H111.234H111.424L111.495 13.2418L114.559 20.7478L117.289 13.2528L117.357 13.0674H117.554H120.106H120.515L120.368 13.4469L115.622 25.6462L115.552 25.8251H115.36H113.428H113.238L113.167 25.6485L110.04 17.8544L106.868 25.6495L106.797 25.8251H106.608L106.608 25.825ZM122.996 25.5458V19.7577H130.904V21.2432V21.5224H130.623H125.992V23.3754H134.224H134.505V23.6546V25.5458V25.825H134.224H123.277H122.996V25.5458ZM122.996 17.5975V15.5452V15.266H123.277H134.105H134.386V15.5452V17.3183V17.5975H134.105H131.301H125.992H122.996ZM152.444 15.266H154.876H155.158V15.5452V19.0562L160.607 15.3162L160.68 15.2659H160.766H164.32H165.243L164.476 15.7764L157.853 20.1839L165.267 25.3178L166 25.825H165.107H161.22H161.131L161.056 25.7717L155.158 21.5734V25.5458V25.825H154.876H152.444H152.162V25.5458V15.5451V15.2659H152.444L152.444 15.266ZM142.978 17.9789L141.077 21.2948H144.859L142.978 17.9789Z" fill="#374A5E"/>
<path fill-rule="evenodd" clip-rule="evenodd" d="M91.5292 18.3912L94.5297 15.3501L94.6126 15.2661H94.731H97.569H98.2456L97.7683 15.7415L93.3668 20.1273L98.8369 25.3451L99.3402 25.8251H98.6423H95.2797H95.1664L95.0839 25.7457L91.4247 22.2078L88.0676 25.7369L87.9837 25.825H87.8628H84.9535H84.2924L84.751 25.353L89.5407 20.4224L84.6633 15.7459L84.1628 15.266H84.8581H88.1491H88.2617L88.3437 15.3443L91.5293 18.3911L91.5292 18.3912ZM68.5982 25.5459V17.8667H72.0233H75.1785H77.4176H77.6992V18.1459V20.2264V20.5058H77.4176H72.0233V23.0442H81.5909H81.8725V23.3236V25.5459V25.8251H81.5909H68.8798H68.5981V25.5459H68.5982ZM68.5982 15.7065V13.3466V13.0674H68.8798H81.4716H81.7532V13.3466V15.4272V15.7065H81.4716H75.1785H72.0233H68.5982Z" fill="#50BE46"/>
<path fill-rule="evenodd" clip-rule="evenodd" d="M11.7772 9.43417L3.11798 22.2393L0 18.7999L5.50956 10.6203L11.7772 9.43417ZM61.6135 -6.05474e-05L37.3178 35.9999L34.1997 32.5603L55.3828 1.17964L61.6135 -0.00012207V-6.05474e-05ZM49.0755 2.37343L31.0807 29.1193L27.9626 25.68L42.8386 3.55393L49.0755 2.37337V2.37343ZM36.8356 4.69051L15.5926 35.9999L12.4743 32.5603L30.6016 5.87052L36.8356 4.69045V4.69051ZM24.2481 7.07323L9.35511 29.1194L6.23713 25.68L18.0585 8.24493L24.2481 7.07323Z" fill="url(#paint0_linear)"/>
</g>
<defs>
<linearGradient id="paint0_linear" x1="15.4036" y1="17.9997" x2="46.2104" y2="17.9997" gradientUnits="userSpaceOnUse">
<stop stop-color="#50BE46"/>
<stop offset="1" stop-color="#374A5E"/>
</linearGradient>
<clipPath id="clip0">
<rect width="166" height="36" fill="white"/>
</clipPath>
</defs>
</svg>
