<svg width="221" height="48" viewBox="0 0 221 48" fill="none" xmlns="http://www.w3.org/2000/svg">
<g clip-path="url(#clip0)">
<path fill-rule="evenodd" clip-rule="evenodd" d="M180.632 33.8721L186.607 23.8735H186.056H184.585V20.3547H188.71H188.923H191.808H192.066H192.278L192.387 20.5348L200.483 33.8691L200.826 34.4334H200.162H196.479H196.263L196.154 34.2444L194.58 31.5019H186.123L184.549 34.2444L184.441 34.4334H184.224H180.954H180.296L180.632 33.8721H180.632ZM141.929 34.4334H139.294H139.038L138.945 34.1949L132.627 17.9291L132.431 17.4231H132.976H136.913H137.171L137.263 17.6644L141.079 27.6727L145.073 17.6588L145.167 17.4232H145.422H148.089H148.341L148.436 17.6558L152.515 27.6639L156.15 17.6704L156.24 17.4233H156.502H159.899H160.445L160.248 17.9292L153.93 34.1951L153.837 34.4336H153.581H151.01H150.757L150.662 34.1981L146.499 23.8059L142.276 34.1994L142.182 34.4335H141.929L141.929 34.4334ZM163.747 34.0612V26.3437H174.276V28.3243V28.6966H173.901H167.736V31.1672H178.695H179.07V31.5395V34.0612V34.4334H178.695H164.122H163.747V34.0612V34.0612ZM163.747 23.4634V20.727V20.3547H164.122H178.537H178.912V20.727V23.0912V23.4634H178.537H174.804H167.736H163.747ZM202.952 20.3547H206.19H206.565V20.727V25.4084L213.82 20.4216L213.917 20.3546H214.032H218.763H219.993L218.971 21.0353L210.153 26.9119L220.025 33.7572L221 34.4334H219.811H214.636H214.517L214.417 34.3623L206.565 28.7646V34.0611V34.4334H206.191H202.952H202.577V34.0611V20.7269V20.3546H202.952L202.952 20.3547ZM190.35 23.972L187.82 28.3931H192.854L190.35 23.972Z" fill="#374A5E"/>
<path fill-rule="evenodd" clip-rule="evenodd" d="M121.855 24.5215L125.85 20.4668L125.96 20.3547H126.118H129.896H130.797L130.162 20.9886L124.302 26.8363L131.584 33.7934L132.254 34.4334H131.325H126.848H126.698L126.588 34.3275L121.716 29.6104L117.247 34.3158L117.135 34.4333H116.974H113.101H112.221L112.831 33.8039L119.208 27.2298L112.715 20.9945L112.048 20.3545H112.974H117.355H117.505L117.614 20.459L121.855 24.5214L121.855 24.5215ZM91.3267 34.0612V23.8222H95.8867H100.087H103.068H103.443V24.1945V26.9685V27.341H103.068H95.8867V30.7256H108.624H108.999V31.0981V34.0612V34.4334H108.624H91.7016H91.3267V34.0612H91.3267ZM91.3267 20.942V17.7954V17.4231H91.7017H108.465H108.84V17.7954V20.5695V20.942H108.465H100.087H95.8867H91.3267V20.942Z" fill="#50BE46"/>
<path fill-rule="evenodd" clip-rule="evenodd" d="M15.6792 12.5791L4.15104 29.6526L0 25.0667L7.33502 14.1606L15.6792 12.5791V12.5791ZM82.0276 8.20305e-05L49.6821 48.0001L45.531 43.4139L73.7325 1.57302L82.0276 0V8.20305e-05ZM65.3355 3.16474L41.3785 38.826L37.2273 34.2401L57.0322 4.73874L65.3355 3.16466V3.16474ZM49.0402 6.25417L20.7588 48.0001L16.6074 43.4139L40.7406 7.82752L49.0402 6.25409V6.25417ZM32.2821 9.43113L12.4547 38.826L8.30365 34.2402L24.0417 10.9934L32.2821 9.43113V9.43113Z" fill="url(#paint0_linear)"/>
</g>
<defs>
<linearGradient id="paint0_linear" x1="20.5072" y1="23.9998" x2="61.5211" y2="23.9998" gradientUnits="userSpaceOnUse">
<stop stop-color="#50BE46"/>
<stop offset="1" stop-color="#374A5E"/>
</linearGradient>
<clipPath id="clip0">
<rect width="221" height="48" fill="white"/>
</clipPath>
</defs>
</svg>
